<svg width="269" height="109" viewBox="0 0 269 109" fill="none" xmlns="http://www.w3.org/2000/svg">
<rect width="269" height="109" fill="black"/>
<g filter="url(#filter0_i_449399_924)">
<path d="M113.443 74.53C113.513 74.0867 113.898 73.865 114.598 73.865C115.064 73.865 115.566 73.97 116.103 74.18C116.639 74.39 117.083 74.6817 117.433 75.055C117.783 75.405 117.923 75.7667 117.853 76.14C116.779 83.4433 114.854 90.21 112.078 96.44C111.891 96.86 111.483 97.07 110.853 97.07C110.456 97.07 109.989 96.9883 109.453 96.825C108.029 96.3817 107.049 95.5417 106.513 94.305C105.999 93.045 105.684 91.505 105.568 89.685L105.498 88.81C104.658 90.5833 103.468 93.29 101.928 96.93C101.718 97.3967 101.286 97.63 100.633 97.63C100.166 97.63 99.6759 97.5133 99.1626 97.28C98.6492 97.0467 98.2292 96.755 97.9026 96.405C97.5992 96.055 97.4709 95.6933 97.5176 95.32C97.8209 93.3133 97.9726 90.9683 97.9726 88.285C97.9726 87.0483 97.9259 85.2167 97.8326 82.79C97.7392 80.3633 97.6926 78.555 97.6926 77.365L97.7276 75.755C97.7509 75.4283 97.8792 75.1833 98.1126 75.02C98.3692 74.8567 98.6959 74.775 99.0926 74.775C99.7926 74.775 100.493 74.9733 101.193 75.37C101.893 75.7433 102.231 76.175 102.208 76.665L102.173 78.52C102.173 79.8967 102.219 81.9617 102.313 84.715C103.316 82.6617 104.413 80.6433 105.603 78.66C105.859 78.24 106.338 78.03 107.038 78.03C107.714 78.03 108.368 78.2167 108.998 78.59C109.651 78.9633 109.989 79.4067 110.013 79.92C110.036 80.27 110.048 80.8067 110.048 81.53C110.048 82.16 110.024 83.105 109.978 84.365C109.931 85.9283 109.919 87.095 109.943 87.865V89.02C111.576 84.26 112.743 79.43 113.443 74.53ZM134.148 92.065C134.498 92.1817 134.673 92.3917 134.673 92.695C134.673 93.0683 134.451 93.4767 134.008 93.92C133.518 94.41 132.888 94.655 132.118 94.655C131.745 94.655 131.43 94.6083 131.173 94.515C129.936 94.1183 128.816 93.92 127.813 93.92C126.063 93.92 124.278 94.48 122.458 95.6C122.155 95.81 121.781 95.985 121.338 96.125C120.918 96.2417 120.521 96.3 120.148 96.3C119.798 96.3 119.518 96.2417 119.308 96.125C119.098 95.985 118.993 95.775 118.993 95.495C118.993 95.3317 119.016 95.1917 119.063 95.075C119.74 93.185 120.276 91.4817 120.673 89.965C121.093 88.4483 121.373 86.9083 121.513 85.345C121.723 83.245 121.828 81.705 121.828 80.725C121.828 78.135 121.326 76.1517 120.323 74.775C120.206 74.635 120.148 74.4483 120.148 74.215C120.148 73.7483 120.475 73.3167 121.128 72.92C121.781 72.5 122.423 72.29 123.053 72.29C123.473 72.29 123.776 72.3833 123.963 72.57C124.266 72.6867 124.465 72.8733 124.558 73.13C125.141 74.67 125.946 75.9767 126.973 77.05C128 78.1 129.213 78.625 130.613 78.625C130.87 78.625 131.255 78.5783 131.768 78.485C132.095 78.4383 132.305 78.415 132.398 78.415C132.795 78.415 133.086 78.5083 133.273 78.695C133.483 78.8583 133.588 79.0917 133.588 79.395C133.588 79.7217 133.448 80.0483 133.168 80.375C132.911 80.7017 132.561 80.935 132.118 81.075C131.161 81.4017 130.205 81.565 129.248 81.565C128.105 81.565 127.008 81.3317 125.958 80.865C125.911 82.1717 125.853 83.1517 125.783 83.805L125.538 86.01C126.448 85.8467 127.358 85.7067 128.268 85.59L128.758 85.555C129.691 85.555 130.158 85.87 130.158 86.5C130.158 86.92 129.925 87.2933 129.458 87.62C128.991 87.9467 128.513 88.1567 128.023 88.25C127.3 88.39 126.308 88.5417 125.048 88.705C124.791 89.8483 124.511 90.9217 124.208 91.925C125.748 91.365 127.311 91.085 128.898 91.085C130.648 91.085 132.398 91.4117 134.148 92.065ZM144.454 85.135L144.174 85.835L146.624 87.9L146.379 86.885C146.216 86.2317 145.889 84.8433 145.399 82.72L144.454 85.135ZM148.444 74.915C148.771 76.945 149.179 79.01 149.669 81.11C150.183 83.1867 150.801 85.5783 151.524 88.285C152.201 90.8517 152.644 92.555 152.854 93.395C152.878 93.465 152.889 93.57 152.889 93.71C152.889 94.27 152.574 94.76 151.944 95.18C151.314 95.5767 150.661 95.775 149.984 95.775C149.424 95.775 148.993 95.6233 148.689 95.32C148.013 94.5967 147.301 93.9083 146.554 93.255C145.808 92.6017 144.828 91.7967 143.614 90.84L142.459 89.895C141.479 91.995 140.721 93.5467 140.184 94.55C140.021 94.9 139.589 95.2267 138.889 95.53C138.213 95.81 137.583 95.95 136.999 95.95C136.346 95.95 136.019 95.74 136.019 95.32C136.019 95.2033 136.054 95.0633 136.124 94.9C136.824 93.1733 137.653 91.19 138.609 88.95L139.344 87.165C138.761 86.5817 138.469 86.29 138.469 86.29C138.306 86.1267 138.224 85.94 138.224 85.73C138.224 85.3333 138.481 84.96 138.994 84.61C139.508 84.2367 140.079 83.9917 140.709 83.875C141.829 81.1917 142.879 78.4617 143.859 75.685C143.953 75.3583 144.244 75.0783 144.734 74.845C145.248 74.5883 145.784 74.425 146.344 74.355C146.741 74.2383 147.079 74.18 147.359 74.18C148.013 74.18 148.374 74.425 148.444 74.915ZM162.142 83.315C163.052 82.5917 163.787 81.95 164.347 81.39C164.93 80.83 165.373 80.27 165.677 79.71C164.417 79.3833 162.55 78.8467 160.077 78.1L159.902 85.205C160.602 84.6217 161.01 84.2717 161.127 84.155L162.142 83.315ZM167.777 88.215C167.963 87.8417 168.36 87.5267 168.967 87.27C169.573 86.99 170.157 86.85 170.717 86.85C171.487 86.85 171.872 87.095 171.872 87.585C171.872 87.725 171.837 87.8883 171.767 88.075C170.81 90.315 170.087 92.485 169.597 94.585C169.48 95.0517 169.142 95.4833 168.582 95.88C168.348 96.1833 167.987 96.44 167.497 96.65C167.03 96.86 166.563 96.965 166.097 96.965C165.7 96.965 165.373 96.8833 165.117 96.72C164.883 96.5567 164.755 96.3 164.732 95.95C164.638 94.4333 164.137 93.045 163.227 91.785C162.34 90.525 161.197 89.7083 159.797 89.335L159.622 94.41C159.598 94.8533 159.225 95.2617 158.502 95.635C157.802 96.0083 157.125 96.195 156.472 96.195C156.122 96.195 155.842 96.1367 155.632 96.02C155.422 95.88 155.317 95.67 155.317 95.39L155.422 90.56C155.118 90.35 154.967 90.105 154.967 89.825C154.967 89.4983 155.142 89.1833 155.492 88.88C155.608 84.6333 155.748 80.3983 155.912 76.175C155.935 75.685 156.262 75.265 156.892 74.915C157.545 74.5417 158.198 74.355 158.852 74.355C159.342 74.355 159.692 74.4717 159.902 74.705C162.445 75.405 165.082 76.175 167.812 77.015C168.232 76.9217 168.523 76.875 168.687 76.875C169.083 76.875 169.387 76.9683 169.597 77.155C169.83 77.3183 169.947 77.575 169.947 77.925C169.947 78.8817 169.632 79.7683 169.002 80.585C168.372 81.3783 167.497 82.265 166.377 83.245L165.677 83.875C164.557 84.9717 163.472 85.94 162.422 86.78C164.335 87.3167 165.875 88.3783 167.042 89.965C167.135 89.7317 167.38 89.1483 167.777 88.215Z" fill="#FFDF27"/>
</g>
<g filter="url(#filter1_i_449399_924)">
<path d="M46.2311 69.6C43.6311 69.6 41.1711 69.4 38.8511 69C36.5311 68.56 34.5511 67.96 32.9111 67.2V57.9C34.7111 58.74 36.7111 59.42 38.9111 59.94C41.1111 60.46 43.1711 60.72 45.0911 60.72C47.0911 60.72 48.5911 60.56 49.5911 60.24C50.6311 59.88 51.1511 59.1 51.1511 57.9C51.1511 57.06 50.8511 56.4 50.2511 55.92C49.6911 55.44 48.7911 55 47.5511 54.6C46.3511 54.2 44.7711 53.7 42.8111 53.1C40.2111 52.26 38.1511 51.34 36.6311 50.34C35.1111 49.34 34.0111 48.12 33.3311 46.68C32.6911 45.24 32.3711 43.48 32.3711 41.4C32.3711 37.6 33.7111 34.72 36.3911 32.76C39.1111 30.76 43.1311 29.76 48.4511 29.76C50.5711 29.76 52.7511 29.94 54.9911 30.3C57.2711 30.66 59.1111 31.06 60.5111 31.5V40.86C58.6311 40.1 56.8311 39.56 55.1111 39.24C53.3911 38.92 51.7711 38.76 50.2511 38.76C48.4911 38.76 46.9911 38.9 45.7511 39.18C44.5111 39.46 43.8911 40.18 43.8911 41.34C43.8911 42.34 44.4111 43.08 45.4511 43.56C46.5311 44 48.4311 44.58 51.1511 45.3C54.3111 46.14 56.7111 47.16 58.3511 48.36C60.0311 49.56 61.1711 50.96 61.7711 52.56C62.3711 54.12 62.6711 55.9 62.6711 57.9C62.6711 61.42 61.3111 64.26 58.5911 66.42C55.8711 68.54 51.7511 69.6 46.2311 69.6ZM75.9123 69V38.76H65.0523V30.36H98.0523V38.76H87.1923V69H75.9123ZM101.627 69V30.36H121.727C124.887 30.36 127.467 30.94 129.467 32.1C131.507 33.26 133.027 34.88 134.027 36.96C135.027 39 135.527 41.38 135.527 44.1C135.527 46.7 134.867 49 133.547 51C132.267 52.96 130.547 54.46 128.387 55.5C128.827 55.86 129.207 56.3 129.527 56.82C129.847 57.3 130.207 57.98 130.607 58.86L135.047 69H123.287L119.207 59.7C118.887 58.98 118.487 58.48 118.007 58.2C117.567 57.88 116.927 57.72 116.087 57.72H112.907V69H101.627ZM112.907 49.08H118.847C120.487 49.08 121.747 48.66 122.627 47.82C123.547 46.94 124.007 45.7 124.007 44.1C124.007 40.7 122.407 39 119.207 39H112.907V49.08ZM140.313 69V30.36H169.593V39H151.593V45.3H167.373V54.06H151.593V60.36H169.593V69H140.313ZM173.784 69V30.36H203.064V39H185.064V45.3H200.844V54.06H185.064V60.36H203.064V69H173.784ZM215.715 69V38.76H204.855V30.36H237.855V38.76H226.995V69H215.715Z" fill="white"/>
</g>
<path d="M10 11H258V19H10V11Z" fill="white"/>
<path d="M10 11H258V19H10V11Z" fill="white"/>
<path d="M10 82H87V90H10V82Z" fill="white"/>
<path d="M10 82H87V90H10V82Z" fill="white"/>
<path d="M10 89L10 11H18L18 89H10Z" fill="white"/>
<path d="M10 89L10 11H18L18 89H10Z" fill="white"/>
<path d="M250 89V11H258V89H250Z" fill="white"/>
<path d="M250 89V11H258V89H250Z" fill="white"/>
<path d="M181 82H258V90H181V82Z" fill="white"/>
<path d="M181 82H258V90H181V82Z" fill="white"/>
<defs>
<filter id="filter0_i_449399_924" x="97.4475" y="72.29" width="74.4243" height="29.34" filterUnits="userSpaceOnUse" color-interpolation-filters="sRGB">
<feFlood flood-opacity="0" result="BackgroundImageFix"/>
<feBlend mode="normal" in="SourceGraphic" in2="BackgroundImageFix" result="shape"/>
<feColorMatrix in="SourceAlpha" type="matrix" values="0 0 0 0 0 0 0 0 0 0 0 0 0 0 0 0 0 0 127 0" result="hardAlpha"/>
<feOffset dy="4"/>
<feGaussianBlur stdDeviation="2"/>
<feComposite in2="hardAlpha" operator="arithmetic" k2="-1" k3="1"/>
<feColorMatrix type="matrix" values="0 0 0 0 1 0 0 0 0 1 0 0 0 0 1 0 0 0 0.2 0"/>
<feBlend mode="normal" in2="shape" result="effect1_innerShadow_449399_924"/>
</filter>
<filter id="filter1_i_449399_924" x="32.3711" y="29.76" width="206.484" height="43.84" filterUnits="userSpaceOnUse" color-interpolation-filters="sRGB">
<feFlood flood-opacity="0" result="BackgroundImageFix"/>
<feBlend mode="normal" in="SourceGraphic" in2="BackgroundImageFix" result="shape"/>
<feColorMatrix in="SourceAlpha" type="matrix" values="0 0 0 0 0 0 0 0 0 0 0 0 0 0 0 0 0 0 127 0" result="hardAlpha"/>
<feOffset dx="1" dy="4"/>
<feGaussianBlur stdDeviation="2.5"/>
<feComposite in2="hardAlpha" operator="arithmetic" k2="-1" k3="1"/>
<feColorMatrix type="matrix" values="0 0 0 0 0 0 0 0 0 0 0 0 0 0 0 0 0 0 0.15 0"/>
<feBlend mode="normal" in2="shape" result="effect1_innerShadow_449399_924"/>
</filter>
</defs>
</svg>
